<svg xmlns="http://www.w3.org/2000/svg" viewBox="0 0 200 200" fill="none" role="img" aria-label="ساعة ذكية">
  <defs>
    <linearGradient id="bg12" x1="0%" y1="0%" x2="100%" y2="100%"><stop offset="0%" stop-color="#f1f5f9"/><stop offset="100%" stop-color="#e2e8f0"/></linearGradient>
    <linearGradient id="fg12" x1="0%" y1="0%" x2="100%" y2="100%"><stop offset="0%" stop-color="#475569" stop-opacity="0.4"/><stop offset="100%" stop-color="#334155" stop-opacity="0.6"/></linearGradient>
  </defs>
  <rect width="200" height="200" rx="12" fill="url(#bg12)"/>
  <rect x="72" y="30" width="56" height="20" rx="6" fill="#475569" opacity="0.25"/>
  <rect x="72" y="150" width="56" height="20" rx="6" fill="#475569" opacity="0.25"/>
  <rect x="60" y="50" width="80" height="100" rx="16" fill="url(#fg12)" stroke="#475569" stroke-width="2"/>
  <rect x="68" y="58" width="64" height="84" rx="12" fill="white" opacity="0.8"/>
  <circle cx="100" cy="95" r="25" fill="none" stroke="#475569" stroke-width="1.5" opacity="0.3"/>
  <line x1="100" y1="75" x2="100" y2="95" stroke="#475569" stroke-width="2" stroke-linecap="round" opacity="0.6"/>
  <line x1="100" y1="95" x2="115" y2="100" stroke="#475569" stroke-width="1.5" stroke-linecap="round" opacity="0.4"/>
  <circle cx="100" cy="95" r="2" fill="#475569" opacity="0.5"/>
  <rect x="86" y="115" width="28" height="12" rx="3" fill="#475569" opacity="0.15"/>
  <rect x="90" y="118" width="8" height="3" rx="1" fill="#475569" opacity="0.3"/>
  <rect x="101" y="118" width="8" height="3" rx="1" fill="#475569" opacity="0.2"/>
</svg>