<svg xmlns="http://www.w3.org/2000/svg" viewBox="0 0 200 200" fill="none" role="img" aria-label="كتاب إلكتروني">
  <defs>
    <linearGradient id="bg9" x1="0%" y1="0%" x2="100%" y2="100%"><stop offset="0%" stop-color="#ccfbf1"/><stop offset="100%" stop-color="#99f6e4"/></linearGradient>
    <linearGradient id="fg9" x1="0%" y1="0%" x2="100%" y2="100%"><stop offset="0%" stop-color="#14b8a6" stop-opacity="0.5"/><stop offset="100%" stop-color="#0d9488" stop-opacity="0.7"/></linearGradient>
  </defs>
  <rect width="200" height="200" rx="12" fill="url(#bg9)"/>
  <path d="M60 45 L60 155 Q80 145 100 155 Q120 145 140 155 L140 45 Q120 55 100 45 Q80 55 60 45 Z" fill="url(#fg9)" stroke="#14b8a6" stroke-width="1.5"/>
  <line x1="100" y1="45" x2="100" y2="155" stroke="#14b8a6" stroke-width="1" opacity="0.3"/>
  <rect x="68" y="65" width="25" height="4" rx="2" fill="white" opacity="0.5"/>
  <rect x="68" y="75" width="20" height="3" rx="1.5" fill="white" opacity="0.35"/>
  <rect x="68" y="83" width="22" height="3" rx="1.5" fill="white" opacity="0.3"/>
  <rect x="68" y="91" width="18" height="3" rx="1.5" fill="white" opacity="0.25"/>
  <rect x="68" y="105" width="25" height="4" rx="2" fill="white" opacity="0.5"/>
  <rect x="68" y="115" width="20" height="3" rx="1.5" fill="white" opacity="0.35"/>
  <rect x="68" y="123" width="22" height="3" rx="1.5" fill="white" opacity="0.3"/>
  <circle cx="145" cy="50" r="10" fill="#14b8a6" opacity="0.2"/>
  <path d="M142 47 L148 53 M148 47 L142 53" stroke="#14b8a6" stroke-width="1.5" stroke-linecap="round" opacity="0.4"/>
</svg>