<svg xmlns="http://www.w3.org/2000/svg" viewBox="0 0 200 200" fill="none" role="img" aria-label="خدمة كتابة المحتوى">
  <defs>
    <linearGradient id="bg10" x1="0%" y1="0%" x2="100%" y2="100%"><stop offset="0%" stop-color="#dbeafe"/><stop offset="100%" stop-color="#bfdbfe"/></linearGradient>
    <linearGradient id="fg10" x1="0%" y1="0%" x2="100%" y2="100%"><stop offset="0%" stop-color="#2563eb" stop-opacity="0.4"/><stop offset="100%" stop-color="#1d4ed8" stop-opacity="0.6"/></linearGradient>
  </defs>
  <rect width="200" height="200" rx="12" fill="url(#bg10)"/>
  <rect x="55" y="40" width="80" height="120" rx="6" fill="white" opacity="0.6" stroke="#2563eb" stroke-width="1.5"/>
  <rect x="65" y="55" width="60" height="5" rx="2.5" fill="#2563eb" opacity="0.3"/>
  <rect x="65" y="67" width="50" height="4" rx="2" fill="#2563eb" opacity="0.2"/>
  <rect x="65" y="77" width="55" height="4" rx="2" fill="#2563eb" opacity="0.2"/>
  <rect x="65" y="87" width="40" height="4" rx="2" fill="#2563eb" opacity="0.15"/>
  <rect x="65" y="100" width="55" height="5" rx="2.5" fill="#2563eb" opacity="0.3"/>
  <rect x="65" y="112" width="45" height="4" rx="2" fill="#2563eb" opacity="0.2"/>
  <rect x="65" y="122" width="50" height="4" rx="2" fill="#2563eb" opacity="0.2"/>
  <rect x="65" y="132" width="35" height="4" rx="2" fill="#2563eb" opacity="0.15"/>
  <line x1="120" y1="65" x2="150" y2="45" stroke="#2563eb" stroke-width="2" stroke-linecap="round" opacity="0.5"/>
  <polygon points="148,40 155,47 150,50 143,43" fill="#2563eb" opacity="0.5"/>
  <path d="M118 68 L125 68 L125 75" stroke="#2563eb" stroke-width="1.5" fill="none" stroke-linecap="round" opacity="0.3"/>
</svg>