<svg xmlns="http://www.w3.org/2000/svg" viewBox="0 0 200 140" fill="none" role="img" aria-label="قالب Story Driven">
  <defs>
    <linearGradient id="tsd" x1="0%" y1="0%" x2="100%" y2="100%">
      <stop offset="0%" stop-color="#6366f1"/>
      <stop offset="100%" stop-color="#8b5cf6"/>
    </linearGradient>
  </defs>
  <rect width="200" height="140" rx="8" fill="white" stroke="#e2e8f0" stroke-width="1"/>
  <!-- Image placeholder left -->
  <rect x="8" y="8" width="80" height="72" rx="6" fill="#e0e7ff"/>
  <rect x="26" y="28" width="44" height="32" rx="4" fill="#8b5cf6" opacity="0.4"/>
  <rect x="36" y="36" width="24" height="16" rx="3" fill="url(#tsd)" opacity="0.6"/>
  <!-- Content right -->
  <rect x="100" y="14" width="92" height="7" rx="3.5" fill="#0f172a"/>
  <rect x="100" y="26" width="80" height="5" rx="2.5" fill="#94a3b8"/>
  <rect x="100" y="36" width="86" height="5" rx="2.5" fill="#94a3b8"/>
  <rect x="100" y="46" width="72" height="5" rx="2.5" fill="#94a3b8"/>
  <rect x="100" y="60" width="56" height="12" rx="4" fill="#dcfce7"/>
  <rect x="104" y="64" width="48" height="4" rx="2" fill="#16a34a"/>
  <!-- Testimonials section -->
  <rect x="8" y="88" width="184" height="1" fill="#e2e8f0"/>
  <rect x="8" y="96" width="40" height="6" rx="3" fill="#6366f1" opacity="0.2"/>
  <rect x="52" y="96" width="40" height="6" rx="3" fill="#6366f1" opacity="0.2"/>
  <rect x="96" y="96" width="40" height="6" rx="3" fill="#6366f1" opacity="0.2"/>
  <rect x="140" y="96" width="40" height="6" rx="3" fill="#6366f1" opacity="0.2"/>
  <!-- CTA -->
  <rect x="60" y="112" width="80" height="18" rx="9" fill="url(#tsd)"/>
  <rect x="72" y="117" width="56" height="8" rx="4" fill="white"/>
</svg>
