<svg xmlns="http://www.w3.org/2000/svg" viewBox="0 0 560 360" fill="none" role="img" aria-label="رسم توضيحي للمنصة">
  <defs>
    <linearGradient id="hbg" x1="0%" y1="0%" x2="100%" y2="100%">
      <stop offset="0%" stop-color="#6366f1" stop-opacity="0.08"/>
      <stop offset="100%" stop-color="#3b82f6" stop-opacity="0.12"/>
    </linearGradient>
    <linearGradient id="hcard" x1="0%" y1="0%" x2="100%" y2="100%">
      <stop offset="0%" stop-color="#6366f1"/>
      <stop offset="100%" stop-color="#8b5cf6"/>
    </linearGradient>
  </defs>
  <rect width="560" height="360" rx="20" fill="url(#hbg)"/>
  <!-- Floating cards -->
  <rect x="30" y="40" width="160" height="100" rx="12" fill="white" opacity="0.95" filter="url(#shadow)"/>
  <rect x="44" y="56" width="80" height="8" rx="4" fill="#0f172a"/>
  <rect x="44" y="72" width="55" height="20" rx="4" fill="url(#hcard)" opacity="0.85"/>
  <rect x="104" y="72" width="12" height="20" rx="4" fill="#34d399" opacity="0.9"/>
  <rect x="44" y="100" width="132" height="6" rx="3" fill="#e2e8f0"/>
  <rect x="44" y="114" width="100" height="6" rx="3" fill="#e2e8f0"/>
  <!-- Main dashboard card -->
  <rect x="100" y="80" width="360" height="220" rx="16" fill="white" opacity="0.98"/>
  <rect x="116" y="96" width="120" height="10" rx="5" fill="#0f172a"/>
  <rect x="116" y="114" width="328" height="1" fill="#e2e8f0"/>
  <!-- Stat row -->
  <rect x="116" y="124" width="72" height="48" rx="8" fill="#f8fafc"/>
  <rect x="124" y="132" width="36" height="5" rx="2.5" fill="#94a3b8"/>
  <rect x="124" y="142" width="52" height="8" rx="3" fill="#0f172a"/>
  <rect x="124" y="156" width="28" height="5" rx="2" fill="#34d399"/>
  <rect x="200" y="124" width="72" height="48" rx="8" fill="#f8fafc"/>
  <rect x="208" y="132" width="36" height="5" rx="2.5" fill="#94a3b8"/>
  <rect x="208" y="142" width="52" height="8" rx="3" fill="#0f172a"/>
  <rect x="208" y="156" width="28" height="5" rx="2" fill="#f59e0b"/>
  <rect x="284" y="124" width="72" height="48" rx="8" fill="url(#hcard)" opacity="0.9"/>
  <rect x="292" y="132" width="36" height="5" rx="2.5" fill="white" opacity="0.7"/>
  <rect x="292" y="142" width="52" height="8" rx="3" fill="white"/>
  <rect x="292" y="156" width="28" height="5" rx="2" fill="white" opacity="0.7"/>
  <rect x="368" y="124" width="72" height="48" rx="8" fill="#f8fafc"/>
  <rect x="376" y="132" width="36" height="5" rx="2.5" fill="#94a3b8"/>
  <rect x="376" y="142" width="52" height="8" rx="3" fill="#0f172a"/>
  <rect x="376" y="156" width="28" height="5" rx="2" fill="#34d399"/>
  <!-- Chart area -->
  <polyline points="116,250 150,230 190,240 230,215 270,225 310,205 350,218 390,208 428,215" fill="none" stroke="#6366f1" stroke-width="2.5" stroke-linecap="round" stroke-linejoin="round"/>
  <path d="M116 250 L150 230 L190 240 L230 215 L270 225 L310 205 L350 218 L390 208 L428 215 L428 285 L116 285 Z" fill="#6366f1" opacity="0.07"/>
  <!-- Table rows -->
  <rect x="116" y="288" width="328" height="6" rx="3" fill="#f1f5f9"/>
  <!-- Floating affiliate badge -->
  <rect x="370" y="30" width="150" height="64" rx="12" fill="white" opacity="0.95"/>
  <rect x="382" y="42" width="80" height="7" rx="3.5" fill="#0f172a"/>
  <rect x="382" y="56" width="60" height="7" rx="3.5" fill="#8b5cf6"/>
  <rect x="448" y="52" width="28" height="16" rx="8" fill="#dcfce7"/>
  <rect x="452" y="57" width="20" height="6" rx="3" fill="#16a34a"/>
</svg>
