<svg xmlns="http://www.w3.org/2000/svg" viewBox="0 0 200 200" fill="none" role="img" aria-label="كورس إدارة الإعلانات">
  <defs>
    <linearGradient id="bg6" x1="0%" y1="0%" x2="100%" y2="100%"><stop offset="0%" stop-color="#e0e7ff"/><stop offset="100%" stop-color="#c7d2fe"/></linearGradient>
    <linearGradient id="fg6" x1="0%" y1="0%" x2="100%" y2="100%"><stop offset="0%" stop-color="#6366f1" stop-opacity="0.5"/><stop offset="100%" stop-color="#4f46e5" stop-opacity="0.7"/></linearGradient>
  </defs>
  <rect width="200" height="200" rx="12" fill="url(#bg6)"/>
  <path d="M70 90 L70 55 Q70 45 80 45 L155 45 Q165 45 165 55 L165 70 Q165 80 155 80 L85 80 Z" fill="url(#fg6)" stroke="#6366f1" stroke-width="1.5"/>
  <circle cx="120" cy="62" r="8" fill="white" opacity="0.7"/>
  <polygon points="118,58 125,62 118,66" fill="#6366f1" opacity="0.6"/>
  <rect x="40" y="95" width="120" height="55" rx="8" fill="white" opacity="0.5" stroke="#6366f1" stroke-width="1"/>
  <rect x="50" y="105" width="35" height="35" rx="4" fill="#6366f1" opacity="0.15"/>
  <rect x="95" y="108" width="55" height="5" rx="2.5" fill="#6366f1" opacity="0.3"/>
  <rect x="95" y="118" width="40" height="4" rx="2" fill="#6366f1" opacity="0.2"/>
  <rect x="95" y="128" width="50" height="4" rx="2" fill="#6366f1" opacity="0.15"/>
  <circle cx="155" cy="155" r="15" fill="#6366f1" opacity="0.2"/>
  <path d="M150 150 L160 160 M160 150 L150 160" stroke="#6366f1" stroke-width="1.5" stroke-linecap="round" opacity="0.5"/>
</svg>