<svg xmlns="http://www.w3.org/2000/svg" viewBox="0 0 200 200" fill="none" role="img" aria-label="اشتراك أدوات التسويق">
  <defs>
    <linearGradient id="bg5" x1="0%" y1="0%" x2="100%" y2="100%"><stop offset="0%" stop-color="#fef3c7"/><stop offset="100%" stop-color="#fde68a"/></linearGradient>
    <linearGradient id="fg5" x1="0%" y1="0%" x2="100%" y2="100%"><stop offset="0%" stop-color="#f59e0b" stop-opacity="0.5"/><stop offset="100%" stop-color="#d97706" stop-opacity="0.7"/></linearGradient>
  </defs>
  <rect width="200" height="200" rx="12" fill="url(#bg5)"/>
  <rect x="55" y="45" width="90" height="110" rx="10" fill="url(#fg5)" stroke="#f59e0b" stroke-width="1.5"/>
  <rect x="55" y="45" width="90" height="25" rx="10" fill="#f59e0b" opacity="0.25"/>
  <text x="100" y="63" text-anchor="middle" font-family="sans-serif" font-weight="bold" font-size="11" fill="#f59e0b" opacity="0.7">PRO</text>
  <circle cx="80" cy="95" r="6" fill="white" opacity="0.6"/>
  <path d="M77 95 L80 98 L85 92" stroke="#f59e0b" stroke-width="1.5" stroke-linecap="round" stroke-linejoin="round" fill="none"/>
  <rect x="92" y="91" width="38" height="5" rx="2.5" fill="white" opacity="0.4"/>
  <circle cx="80" cy="112" r="6" fill="white" opacity="0.6"/>
  <path d="M77 112 L80 115 L85 109" stroke="#f59e0b" stroke-width="1.5" stroke-linecap="round" stroke-linejoin="round" fill="none"/>
  <rect x="92" y="108" width="38" height="5" rx="2.5" fill="white" opacity="0.4"/>
  <circle cx="80" cy="129" r="6" fill="white" opacity="0.6"/>
  <path d="M77 129 L80 132 L85 126" stroke="#f59e0b" stroke-width="1.5" stroke-linecap="round" stroke-linejoin="round" fill="none"/>
  <rect x="92" y="125" width="38" height="5" rx="2.5" fill="white" opacity="0.4"/>
  <circle cx="100" cy="170" r="12" fill="#f59e0b" opacity="0.2"/>
  <path d="M95 170 L105 170 M100 165 L100 175" stroke="#f59e0b" stroke-width="1.5" stroke-linecap="round" opacity="0.4"/>
</svg>