<svg xmlns="http://www.w3.org/2000/svg" viewBox="0 0 200 200" fill="none" role="img" aria-label="قالب متجر إلكتروني">
  <defs>
    <linearGradient id="bg3" x1="0%" y1="0%" x2="100%" y2="100%"><stop offset="0%" stop-color="#d1fae5"/><stop offset="100%" stop-color="#a7f3d0"/></linearGradient>
    <linearGradient id="fg3" x1="0%" y1="0%" x2="100%" y2="100%"><stop offset="0%" stop-color="#10b981" stop-opacity="0.5"/><stop offset="100%" stop-color="#059669" stop-opacity="0.7"/></linearGradient>
  </defs>
  <rect width="200" height="200" rx="12" fill="url(#bg3)"/>
  <rect x="40" y="35" width="120" height="130" rx="8" fill="white" opacity="0.6" stroke="#10b981" stroke-width="1.5"/>
  <rect x="40" y="35" width="120" height="20" rx="8" fill="#10b981" opacity="0.2"/>
  <circle cx="55" cy="45" r="4" fill="#10b981" opacity="0.5"/>
  <circle cx="67" cy="45" r="4" fill="#10b981" opacity="0.35"/>
  <circle cx="79" cy="45" r="4" fill="#10b981" opacity="0.2"/>
  <rect x="50" y="65" width="100" height="30" rx="4" fill="url(#fg3)" opacity="0.5"/>
  <rect x="50" y="105" width="45" height="45" rx="4" fill="#10b981" opacity="0.15" stroke="#10b981" stroke-width="1"/>
  <rect x="105" y="105" width="45" height="45" rx="4" fill="#10b981" opacity="0.15" stroke="#10b981" stroke-width="1"/>
  <rect x="58" y="113" width="29" height="4" rx="2" fill="#10b981" opacity="0.4"/>
  <rect x="58" y="122" width="29" height="3" rx="1.5" fill="#10b981" opacity="0.25"/>
  <rect x="113" y="113" width="29" height="4" rx="2" fill="#10b981" opacity="0.4"/>
  <rect x="113" y="122" width="29" height="3" rx="1.5" fill="#10b981" opacity="0.25"/>
</svg>