<svg xmlns="http://www.w3.org/2000/svg" viewBox="0 0 200 140" fill="none" role="img" aria-label="قالب Hero Classic">
  <defs>
    <linearGradient id="thc" x1="0%" y1="0%" x2="100%" y2="100%">
      <stop offset="0%" stop-color="#6366f1"/>
      <stop offset="100%" stop-color="#3b82f6"/>
    </linearGradient>
  </defs>
  <rect width="200" height="140" rx="8" fill="white" stroke="#e2e8f0" stroke-width="1"/>
  <!-- Hero header -->
  <rect width="200" height="55" rx="8" fill="url(#thc)"/>
  <rect y="47" width="200" height="8" fill="url(#thc)"/>
  <rect x="40" y="14" width="120" height="8" rx="4" fill="white" opacity="0.9"/>
  <rect x="60" y="28" width="80" height="6" rx="3" fill="white" opacity="0.6"/>
  <!-- CTA button -->
  <rect x="70" y="38" width="60" height="16" rx="8" fill="white" opacity="0.25"/>
  <!-- Content -->
  <rect x="16" y="68" width="80" height="6" rx="3" fill="#0f172a"/>
  <rect x="16" y="80" width="120" height="5" rx="2.5" fill="#94a3b8"/>
  <rect x="16" y="90" width="100" height="5" rx="2.5" fill="#94a3b8"/>
  <!-- Price -->
  <rect x="16" y="104" width="50" height="10" rx="4" fill="#6366f1" opacity="0.15"/>
  <rect x="20" y="107" width="42" height="4" rx="2" fill="#6366f1"/>
  <!-- CTA -->
  <rect x="140" y="104" width="44" height="14" rx="7" fill="url(#thc)"/>
  <rect x="148" y="108" width="28" height="6" rx="3" fill="white"/>
  <!-- Label -->
  <rect x="16" y="124" width="60" height="8" rx="4" fill="#f1f5f9"/>
  <rect x="20" y="127" width="52" height="4" rx="2" fill="#64748b"/>
</svg>
